<?xml version="1.0" encoding="UTF-8"?>
<svg version="1.1" xmlns="http://www.w3.org/2000/svg" width="423" height="414">
<path d="M0 0 C139.59 0 279.18 0 423 0 C423 136.62 423 273.24 423 414 C283.41 414 143.82 414 0 414 C0 277.38 0 140.76 0 0 Z " fill="#263A3C" transform="translate(0,0)"/>
<path d="M0 0 C139.59 0 279.18 0 423 0 C423 136.62 423 273.24 423 414 C283.41 414 143.82 414 0 414 C0 277.38 0 140.76 0 0 Z M14.14859521 13.33955574 C12.7439434 16.59309345 12.62396972 19.02378817 12.62247658 22.56710815 C12.61811626 23.21633814 12.61375593 23.86556813 12.60926348 24.53447175 C12.59830235 26.7131348 12.60873271 28.89116563 12.61904907 31.06982422 C12.61559284 32.64625307 12.6108285 34.22267951 12.60486734 35.79910088 C12.59232296 40.13361787 12.59854332 44.46793717 12.60782599 48.80245495 C12.61460209 53.47600341 12.60414241 58.14951742 12.59588623 62.82305908 C12.58253131 71.97955631 12.58543447 81.13597985 12.59412415 90.29247999 C12.60089337 97.7327329 12.60182072 105.17296512 12.5985527 112.61322021 C12.598093 113.67128714 12.59763331 114.72935407 12.59715968 115.81948364 C12.59620052 117.96878132 12.59522788 120.11807899 12.5942419 122.26737666 C12.58568285 142.43155611 12.59553022 162.59569468 12.611643 182.75986743 C12.62504664 200.06974981 12.6227187 217.37957184 12.60888672 234.68945312 C12.59284 254.78041897 12.58650688 274.87134897 12.59572351 294.96232033 C12.59667918 297.10380681 12.59762229 299.24529329 12.5985527 301.38677979 C12.59901553 302.44049141 12.59947836 303.49420303 12.59995521 304.57984531 C12.60254782 312.01301678 12.59816826 319.44616554 12.59111404 326.8793335 C12.58270893 335.93522444 12.58495834 344.99103736 12.60095628 354.04691935 C12.60885232 358.66927543 12.61190792 363.29150132 12.60200882 367.91385651 C12.59308897 372.14284316 12.59794985 376.37157855 12.61394148 380.60054231 C12.6173008 382.13277063 12.61556944 383.66502004 12.60831411 385.19723487 C12.59922319 387.27609123 12.60851498 389.35408109 12.62247658 391.43289185 C12.62296363 392.58870821 12.62345069 393.74452457 12.62395251 394.93536568 C13.1942422 399.582995 15.42116118 403.01763431 19 406 C22.32639145 407.10879715 24.7974494 407.12763836 28.30260181 407.13142776 C28.94753614 407.1334804 29.59247047 407.13553303 30.25694826 407.13764787 C32.43285852 407.14333314 34.60870579 407.14185874 36.78462219 407.14044189 C38.35448488 407.14302465 39.92434692 407.14603756 41.49420804 407.1494453 C45.81984922 407.15752899 50.14547383 407.15930563 54.47112167 407.16004276 C59.13176348 407.16189093 63.79239663 407.16943704 68.45303345 407.17617798 C78.6492133 407.1897713 88.84538922 407.19578751 99.04157662 407.20018864 C105.405167 407.20294924 111.76875585 407.20718624 118.1323452 407.21169281 C135.74296759 407.22388653 153.35358876 407.2341858 170.96421528 407.2375679 C172.65553301 407.23789725 172.65553301 407.23789725 174.38101877 407.23823325 C175.5112969 407.23845153 176.64157502 407.23866981 177.806104 407.2388947 C180.09656608 407.23933817 182.38702816 407.23978473 184.67749023 407.24023438 C185.8136441 407.2404558 186.94979796 407.24067723 188.12038072 407.24090537 C206.53605549 407.24485459 224.95169071 407.26231194 243.3673502 407.2855939 C262.26354309 407.30929103 281.15971612 407.321769 300.05592412 407.32293582 C310.66986092 407.32385348 321.2837462 407.32962859 331.89766884 407.34775543 C340.93453877 407.36313429 349.97134126 407.36828998 359.00822178 407.36001733 C363.62056867 407.35610303 368.23277966 407.35707838 372.84510994 407.37107468 C377.06619859 407.38376684 381.28704855 407.38265752 385.50813665 407.37048396 C387.03640968 407.36851882 388.56469934 407.37164297 390.09294895 407.38032833 C392.1688816 407.39138075 394.24396591 407.38396179 396.31987476 407.3719368 C397.47335779 407.37253389 398.62684082 407.37313097 399.81527787 407.37374616 C404.32972637 406.84394867 407.74316261 405.38685506 410.8125 402 C413.07633184 398.18723059 413.12671812 395.05790526 413.13142776 390.71301556 C413.1334804 390.0697696 413.13553303 389.42652365 413.13764787 388.76378539 C413.14333304 386.59361849 413.14185876 384.42351474 413.14044189 382.25334167 C413.14302466 380.68760378 413.14603757 379.12186655 413.1494453 377.55613023 C413.15752892 373.24189061 413.15930562 368.92766762 413.16004276 364.61342132 C413.16189094 359.96504956 413.16943706 355.31668647 413.17617798 350.6683197 C413.18977126 340.4989985 413.1957875 330.32968124 413.20018864 320.16035247 C413.20294924 313.81351306 413.20718625 307.46667518 413.21169281 301.11983681 C413.22388652 283.55553756 413.2341858 265.99123954 413.2375679 248.42693615 C413.23778747 247.30235861 413.23800703 246.17778107 413.23823325 245.01912542 C413.23845153 243.89182224 413.23866981 242.76451906 413.2388947 241.60305518 C413.23933817 239.31862207 413.23978473 237.03418897 413.24023438 234.74975586 C413.2404558 233.61659261 413.24067723 232.48342937 413.24090537 231.31592784 C413.24485459 212.94875198 413.26231192 194.58161576 413.2855939 176.21445521 C413.3092911 157.36798286 413.321769 138.52153042 413.32293582 119.67504293 C413.32385347 109.08905174 413.32962849 98.50311222 413.34775543 87.91713524 C413.36313439 78.90405383 413.36828992 69.89104004 413.36001733 60.87794801 C413.35610306 56.27775258 413.35707821 51.67769342 413.37107468 47.07751465 C413.38376704 42.86752833 413.38265734 38.65778132 413.37048396 34.44779555 C413.36851885 32.92356017 413.3716428 31.39930812 413.38032833 29.87509622 C413.39138115 27.80460865 413.38396151 25.73497159 413.3719368 23.66450787 C413.37253389 22.5140626 413.37313097 21.36361734 413.37374616 20.1783101 C412.84329197 15.66736636 411.38415943 12.25439448 408 9.1875 C404.18328111 6.92132316 401.04698556 6.87252616 396.69739819 6.86577892 C396.05246386 6.86342669 395.40752953 6.86107446 394.74305174 6.85865095 C392.56714368 6.85195769 390.3912953 6.85241927 388.21537781 6.85282898 C386.64551493 6.84953057 385.0756529 6.84580505 383.50579196 6.8416875 C379.18015279 6.831657 374.85452749 6.82794903 370.52887833 6.82529819 C365.86823506 6.82139832 361.2076028 6.81181986 356.54696655 6.80308533 C345.28669217 6.78331333 334.02641687 6.77325439 322.76612946 6.76435754 C317.46663731 6.75997639 312.16714616 6.75460918 306.8676548 6.74936867 C289.25703355 6.73235669 271.64641293 6.71786127 254.03578472 6.71061993 C249.46469306 6.70870996 244.89360141 6.70678964 240.32250977 6.70483398 C239.1863559 6.70435024 238.05020204 6.7038665 236.87961928 6.7033681 C218.46393172 6.69506316 200.04830902 6.66971826 181.6326498 6.63725331 C162.73645718 6.60421206 143.84029755 6.58617388 124.94407588 6.58297569 C114.33012007 6.58080801 103.71625887 6.57202166 93.10233116 6.54651451 C84.06544866 6.52484769 75.02868375 6.5167373 65.99177822 6.52648129 C61.37939021 6.5310375 56.76724504 6.52906333 52.15489006 6.50971985 C47.93374199 6.49216954 43.71301539 6.49301928 39.49186335 6.50861714 C37.9635875 6.51100562 36.43528308 6.50660574 34.90705105 6.49478849 C32.83089509 6.47972679 30.75624364 6.48929975 28.68012524 6.50501537 C27.52664221 6.50403856 26.37315918 6.50306176 25.18472213 6.50205535 C20.24413827 7.27453634 17.22608241 9.45064236 14.14859521 13.33955574 Z " fill="#22242E" transform="translate(0,0)"/>
<path d="M0 0 C2.71337891 0.43551636 2.71337891 0.43551636 4.58837891 1.56051636 C6.32596526 4.45649361 6.2103771 6.08397071 5.71337891 9.43551636 C3.77319396 12.16327638 1.37542713 14.35172542 -1.06787109 16.62692261 C-1.75594849 17.29465195 -2.44402588 17.96238129 -3.1529541 18.65034485 C-5.35037975 20.78113701 -7.56616532 22.89125138 -9.78662109 24.99801636 C-12.00615201 27.10918957 -14.22065352 29.22449424 -16.42028809 31.35639954 C-17.78837757 32.68212918 -19.16807253 33.99600791 -20.56018066 35.29649353 C-24.25664849 38.71907923 -24.25664849 38.71907923 -25.71044922 43.37667847 C-25.5006543 44.39580322 -25.5006543 44.39580322 -25.28662109 45.43551636 C-21.99586113 45.05647428 -21.99586113 45.05647428 -19.28662109 43.43551636 C-15.78662109 43.74801636 -15.78662109 43.74801636 -12.28662109 44.43551636 C-10.74075234 47.52725387 -10.99302588 50.02981188 -11.28662109 53.43551636 C-13.28662109 55.62301636 -13.28662109 55.62301636 -15.28662109 57.43551636 C-15.28662109 58.75551636 -15.28662109 60.07551636 -15.28662109 61.43551636 C-14.52736328 61.34012573 -13.76810547 61.24473511 -12.98583984 61.14645386 C-11.99197266 61.03559448 -10.99810547 60.92473511 -9.97412109 60.81051636 C-8.98798828 60.69450073 -8.00185547 60.57848511 -6.98583984 60.45895386 C-4.28662109 60.43551636 -4.28662109 60.43551636 -1.28662109 62.43551636 C-0.73008041 66.64932441 -0.71484036 68.66718599 -3.28662109 72.12301636 C-3.94662109 72.88614136 -4.60662109 73.64926636 -5.28662109 74.43551636 C-5.28662109 75.75551636 -5.28662109 77.07551636 -5.28662109 78.43551636 C-4.23474609 78.21895386 -4.23474609 78.21895386 -3.16162109 77.99801636 C-1.73849609 77.71957886 -1.73849609 77.71957886 -0.28662109 77.43551636 C0.74462891 77.18801636 1.77587891 76.94051636 2.83837891 76.68551636 C5.71337891 76.43551636 5.71337891 76.43551636 7.58837891 77.43551636 C9.32444667 80.52185904 9.62792212 83.0694402 8.71337891 86.43551636 C6.26418533 89.92498198 3.25912985 92.7982913 0.20947266 95.76364136 C-0.66176743 96.6344635 -1.53300751 97.50528564 -2.4306488 98.40249634 C-4.27611507 100.2395856 -6.13012549 102.06812579 -7.99194336 103.88864136 C-10.83341706 106.67014377 -13.64458278 109.479696 -16.45263672 112.29489136 C-18.25104184 114.07788304 -20.05111877 115.85919037 -21.85302734 117.63864136 C-22.69184952 118.47614929 -23.53067169 119.31365723 -24.39491272 120.17654419 C-30.53562719 126.14621425 -35.44767256 129.88088354 -44.34912109 129.81051636 C-45.33009766 129.81825073 -46.31107422 129.82598511 -47.32177734 129.83395386 C-56.36596817 128.618529 -63.34169777 120.93827584 -69.72412109 114.93551636 C-70.66777527 114.04829895 -70.66777527 114.04829895 -71.63049316 113.14315796 C-84.27489578 100.91950999 -89.62343629 87.53929282 -93.96801758 70.71481323 C-97.5827474 57.3128925 -103.27473684 49.83113591 -114.03851318 41.02908325 C-115.28662109 39.43551636 -115.28662109 39.43551636 -115.10943604 37.36294556 C-114.28662109 35.43551636 -114.28662109 35.43551636 -112.28662109 33.43551636 C-103.87424518 32.17365997 -96.0758745 35.47483789 -89.28662109 40.43551636 C-84.49702659 45.00259863 -81.18368206 50.54909446 -77.91162109 56.24801636 C-77.46173828 57.01049683 -77.01185547 57.77297729 -76.54833984 58.55856323 C-73.28662109 64.16495215 -73.28662109 64.16495215 -73.28662109 66.43551636 C-67.59054391 65.07825215 -64.74519598 62.41742135 -60.82568359 58.33346558 C-60.21021667 57.70894501 -59.59474976 57.08442444 -58.96063232 56.440979 C-57.63035095 55.08884079 -56.30465577 53.73217835 -54.98309326 52.37151718 C-52.89082291 50.21880486 -50.78537288 48.07982421 -48.67578125 45.9440918 C-42.68244188 39.87132495 -36.71495676 33.77337319 -30.75341797 27.66940308 C-27.10218615 23.9328109 -23.43650054 20.21089538 -19.76190186 16.49728775 C-18.36539945 15.07963905 -16.9747596 13.65619048 -15.59014893 12.2269249 C-13.65602563 10.23050279 -11.70421939 8.25308 -9.74755859 6.27877808 C-9.18010925 5.6834729 -8.61265991 5.08816772 -8.02801514 4.474823 C-5.3563954 1.81545381 -3.79142774 0.50240924 0 0 Z " fill="#263B3C" transform="translate(260.28662109375,215.56448364257813)"/>
<path d="M0 0 C5.13656401 1.81290495 7.56523417 4.13046834 10 9 C10.87973415 13.66259099 10.07828141 16.2883377 7.546875 20.1328125 C3.82723223 25.54214747 -0.67433605 30.00802894 -5.375 34.5625 C-6.20644531 35.38041016 -7.03789062 36.19832031 -7.89453125 37.04101562 C-9.92293725 39.03444911 -11.95803925 41.02046985 -14 43 C-13.02133662 44.14626322 -12.04205413 45.29199788 -11.0625 46.4375 C-10.24458984 47.39462891 -10.24458984 47.39462891 -9.41015625 48.37109375 C-8.63204305 49.26991149 -7.84063472 50.15936528 -7 51 C-6.92794489 52.68608966 -6.91613932 54.37500659 -6.9375 56.0625 C-6.94652344 56.98160156 -6.95554687 57.90070313 -6.96484375 58.84765625 C-6.97644531 59.55792969 -6.98804688 60.26820313 -7 61 C-6.278125 61.04125 -5.55625 61.0825 -4.8125 61.125 C-1.6334129 62.11404932 -0.03192175 63.50635789 2.01953125 66.11328125 C3.2031397 68.39090229 3.31673064 70.13468562 3.4375 72.6875 C3.50107791 74.98199919 3.50107791 74.98199919 4 77 C6.83333333 78.83333333 6.83333333 78.83333333 10 80 C12.89627791 83.37899089 13.3575175 86.32622439 13.49609375 90.7421875 C12.00788845 97.51527933 7.10297579 102.33258361 2.3359375 107.02734375 C1.70265533 107.66112442 1.06937317 108.29490509 0.41690063 108.94789124 C-0.91247948 110.27494507 -2.24551894 111.59834236 -3.58203125 112.91821289 C-5.63467639 114.94706422 -7.67346733 116.98912415 -9.7109375 119.03320312 C-11.00701912 120.32371396 -12.30386701 121.61345578 -13.6015625 122.90234375 C-14.21303131 123.51472397 -14.82450012 124.12710419 -15.45449829 124.75804138 C-19.76891897 129 -19.76891897 129 -22 129 C-22.26683594 129.598125 -22.53367187 130.19625 -22.80859375 130.8125 C-25.81912296 136.34002904 -31.70228794 139.97666123 -37.41015625 142.30859375 C-44.13822418 144.10477478 -52.50269684 144.24825984 -58.92895508 141.25 C-61.44312976 139.73254458 -63.41419648 137.92830966 -65.56640625 135.9296875 C-69.04583701 132.73074828 -72.58972335 129.71555835 -76.296875 126.78515625 C-91.62762238 113.88894099 -97.18174882 100.58484459 -102.52441406 81.52368164 C-105.84002476 68.89599765 -105.84002476 68.89599765 -114 59 C-115.19207116 57.8432338 -116.37959322 56.68176104 -117.5625 55.515625 C-119.2994199 53.85747698 -121.04334527 52.21002499 -122.80859375 50.58203125 C-124.5 48.953125 -124.5 48.953125 -127 46 C-126.56494639 42.19712492 -124.82131627 40.44461826 -122.125 37.8125 C-121.42632812 37.11769531 -120.72765625 36.42289063 -120.0078125 35.70703125 C-116.8173673 32.99453212 -113.63509618 32.6026656 -109.515625 32.6484375 C-97.08943936 34.38501624 -87.43711791 41.27893033 -80 51 C-77.51099497 54.91935952 -75.21035371 58.91775299 -73 63 C-66.7389658 57.88176412 -61.09351226 52.19660011 -55.41213608 46.45673561 C-53.64873639 44.67577186 -51.88166715 42.89852377 -50.11355591 41.12223816 C-45.09172048 36.07609219 -40.07566616 31.02422807 -35.06396484 25.96801758 C-31.9867899 22.86402712 -28.90473362 19.76495299 -25.81964493 16.66882896 C-24.64959726 15.49258932 -23.48144842 14.31445758 -22.31527328 13.13437843 C-20.68593786 11.48577366 -19.05048501 9.84347109 -17.41357422 8.20239258 C-16.02294266 6.80057487 -16.02294266 6.80057487 -14.60421753 5.37043762 C-9.79574042 0.99361621 -6.58327489 -0.6929763 0 0 Z M-12.56860352 12.95092773 C-13.1954303 13.58330353 -13.82225708 14.21567932 -14.46807861 14.86721802 C-16.53568674 16.95938533 -18.5816595 19.07151534 -20.62890625 21.18359375 C-22.0640602 22.64010091 -23.50084702 24.0950008 -24.93919373 25.5483551 C-28.72288387 29.37762745 -32.4899555 33.22278735 -36.2520752 37.07324219 C-42.27438797 43.23587514 -48.31156027 49.38361912 -54.36741447 55.51329231 C-56.47970853 57.65901311 -58.57872358 59.81714179 -60.67713928 61.97642517 C-61.97115852 63.29136579 -63.26568212 64.60581033 -64.56079102 65.91967773 C-65.14118637 66.52388046 -65.72158173 67.12808319 -66.31956482 67.75059509 C-69.38952171 70.83841739 -71.55499406 72.7457456 -76 73 C-76.25265625 72.31679688 -76.5053125 71.63359375 -76.765625 70.9296875 C-82.36974492 57.62876996 -89.1410675 47.35159281 -102.5078125 41.32421875 C-107.16778866 39.55718081 -110.0936338 39.19567767 -115 40 C-116.87208646 41.18950565 -116.87208646 41.18950565 -118 43 C-117.59547401 46.40509818 -116.45929521 47.81148884 -113.85400391 49.94677734 C-103.49342068 58.96379963 -99.52925313 66.7161605 -96.1137085 79.85769653 C-91.48581528 97.19442004 -84.97683067 109.71332855 -71.875 122.0625 C-70.90442657 122.97784515 -70.90442657 122.97784515 -69.91424561 123.91168213 C-60.06214065 133.28683893 -60.06214065 133.28683893 -47.1875 136.375 C-46.21167969 136.40335938 -45.23585938 136.43171875 -44.23046875 136.4609375 C-35.36968073 135.19664127 -29.76107708 129.38796303 -23.6875 123.32421875 C-22.83317383 122.4808345 -21.97884766 121.63745026 -21.09863281 120.76850891 C-19.305232 118.99091084 -17.51706389 117.20801963 -15.73388672 115.42016602 C-12.99973795 112.68723806 -10.23752779 109.98500241 -7.47265625 107.28320312 C-5.7299845 105.54866787 -3.98903743 103.81239775 -2.25 102.07421875 C-1.42201904 101.26981857 -0.59403809 100.4654184 0.2590332 99.63664246 C4.81584654 95.09657809 4.81584654 95.09657809 6.5859375 89.05786133 C6.18242991 86.07665847 6.18242991 86.07665847 4.875 84 C2.02877006 82.4820107 0.07279117 83.26253012 -3 84 C-4.423125 84.2784375 -4.423125 84.2784375 -5.875 84.5625 C-6.926875 84.7790625 -6.926875 84.7790625 -8 85 C-7.37128713 79.34158416 -7.37128713 79.34158416 -5.4375 77.5625 C-3.63282044 75.91254267 -3.63282044 75.91254267 -3.625 72.4375 C-3.810625 70.7359375 -3.810625 70.7359375 -4 69 C-7.5486135 66.63425766 -8.5764525 66.89134735 -12.6875 67.375 C-13.68136719 67.48585938 -14.67523438 67.59671875 -15.69921875 67.7109375 C-16.45847656 67.80632812 -17.21773438 67.90171875 -18 68 C-17.1953125 63.171875 -17.1953125 63.171875 -15.4375 61.625 C-13.64980829 59.92012181 -13.64980829 59.92012181 -13.625 56.5 C-13.73377614 53.12360975 -13.73377614 53.12360975 -15.1875 51.0625 C-17.6351646 49.62766213 -19.20476326 49.65059541 -22 50 C-22.99 50.66 -23.98 51.32 -25 52 C-25.99 52 -26.98 52 -28 52 C-28.42382812 49.94116211 -28.42382812 49.94116211 -28 47 C-26.02511537 44.35925791 -23.62333731 42.18773406 -21.21875 39.94140625 C-19.80592802 38.57232915 -18.39316956 37.20318651 -16.98046875 35.83398438 C-14.73934025 33.69244519 -12.49334059 31.55618156 -10.24462891 29.42260742 C-8.07766236 27.35811648 -5.92910546 25.27574462 -3.78125 23.19140625 C-2.76411926 22.24425499 -2.76411926 22.24425499 -1.72644043 21.27796936 C2.07505449 17.63417713 2.07505449 17.63417713 3.49414062 12.66772461 C3.16627182 10.02940543 3.16627182 10.02940543 1.875 8.125 C-4.44179769 4.33492138 -8.36293156 8.54269984 -12.56860352 12.95092773 Z " fill="#6EE9E2" transform="translate(263,209)"/>
<path d="M0 0 C7.79482009 3.49786898 11.6991018 10.0721195 14.79296875 17.71875 C15.45703125 20.34375 15.45703125 20.34375 15.45703125 27.34375 C1.26703125 27.34375 -12.92296875 27.34375 -27.54296875 27.34375 C-24.62074271 37.3071799 -24.62074271 37.3071799 -17.23046875 43.15625 C-11.73390647 44.92632938 -7.69179492 45.08356136 -2.41796875 42.71875 C0.46576511 41.18260715 2.16711673 39.66425746 4.08203125 37.03125 C4.86578125 36.144375 5.64953125 35.2575 6.45703125 34.34375 C9.76953125 34.46875 9.76953125 34.46875 12.45703125 35.34375 C10.39906222 41.34615966 7.5663303 44.96456777 2.08203125 48.15625 C-4.80226957 51.36417124 -12.78357126 52.05864402 -20.00390625 49.45703125 C-26.00203339 45.99834108 -31.60172531 40.08831349 -34.0703125 33.5546875 C-35.65254346 26.15350795 -35.8979762 17.71034354 -31.875 11.0859375 C-23.62364207 0.29383885 -13.57257618 -3.5026003 0 0 Z " fill="#CCDDF2" transform="translate(142.54296875,89.65625)"/>
<path d="M0 0 C2.80931673 2.19833527 4.76368313 4.5249792 6.83203125 7.43359375 C6.83203125 8.09359375 6.83203125 8.75359375 6.83203125 9.43359375 C4.85203125 9.76359375 2.87203125 10.09359375 0.83203125 10.43359375 C0.35765625 9.69109375 -0.11671875 8.94859375 -0.60546875 8.18359375 C-4.63511567 3.85909462 -9.04795028 1.83245975 -14.91796875 1.08203125 C-21.46455916 0.88199654 -27.53638668 1.51061306 -32.76953125 5.72265625 C-35.26708431 8.33183179 -36.16140266 10.39682367 -36.79296875 13.93359375 C-36.18002788 17.36606261 -35.44241946 19.59888123 -33.0234375 22.16015625 C-28.96640045 24.94456484 -23.90791813 25.45724054 -19.16796875 26.43359375 C-8.95445007 28.85171331 -1.62792408 31.30464512 5.33203125 39.30859375 C7.76111117 44.36917691 7.5583293 48.297423 5.76953125 53.55859375 C2.00574574 59.14356579 -2.93834933 62.88744777 -9.16796875 65.43359375 C-12.09499972 65.89609384 -14.95818551 65.95810349 -17.91796875 65.93359375 C-18.71493164 65.92787354 -19.51189453 65.92215332 -20.33300781 65.91625977 C-27.95895682 65.68561752 -33.428868 63.8307489 -39.1328125 58.6484375 C-42.09225406 55.48767339 -42.09225406 55.48767339 -43.16796875 53.43359375 C-42.83796875 52.44359375 -42.50796875 51.45359375 -42.16796875 50.43359375 C-39.69296875 49.93859375 -39.69296875 49.93859375 -37.16796875 49.43359375 C-36.36359375 50.82578125 -36.36359375 50.82578125 -35.54296875 52.24609375 C-32.385725 56.4834472 -29.81397163 57.94734514 -24.6171875 58.90234375 C-17.08195232 59.81949547 -11.53324649 59.3031925 -4.79296875 55.55859375 C-1.19525985 52.64616274 -0.37253266 51.03601105 0.20703125 46.49609375 C-0.29331992 42.40989252 -1.06224162 41.17818982 -4.16796875 38.43359375 C-9.58313611 35.77023557 -15.34769301 34.36481029 -21.20141602 33.03808594 C-28.32527798 31.4049279 -34.83009439 29.73334043 -40.16796875 24.43359375 C-43.03250303 19.74617402 -44.37570135 14.87845488 -43.16796875 9.43359375 C-40.02374777 2.32336675 -35.28837527 -1.66645887 -28.16796875 -4.56640625 C-18.49649436 -7.56723921 -8.27162619 -5.49810262 0 0 Z " fill="#CCDDF2" transform="translate(94.16796875,74.56640625)"/>
<path d="M0 0 C5.47267031 5.18208604 9.54567801 9.77241432 10.37109375 17.453125 C10.53385496 26.75923676 9.68629612 33.09639579 3.0625 40.02734375 C-3.74327489 46.33041936 -9.25203847 47.54090993 -18.48828125 47.3671875 C-24.8116043 46.7060169 -28.78087273 44.39531507 -33.06640625 39.76953125 C-39.70781354 31.5449198 -40.08630359 23.26146731 -39 13 C-36.94242048 5.61278767 -31.44442218 0.82332946 -25 -3 C-16.77529688 -6.66416028 -7.22338143 -5.20821411 0 0 Z M-26.94921875 5.9140625 C-32.68587954 12.31398833 -33.6076678 16.58128977 -33.4140625 25.21484375 C-32.8225053 30.62256951 -30.8944063 33.3677172 -27 37 C-25.9171875 38.2065625 -25.9171875 38.2065625 -24.8125 39.4375 C-19.82765318 42.20685934 -14.28223653 42.75311592 -8.71875 41.4765625 C-2.93187961 39.05052837 0.21443228 34.47474902 3 29 C4.71799561 23.60210021 5.22577374 17.72724054 2.87109375 12.48828125 C-0.49215257 7.17558145 -3.99659575 2.94939769 -10.35546875 1.44140625 C-16.95070772 0.47357239 -21.9751077 1.02966487 -26.94921875 5.9140625 Z " fill="#CBDCF1" transform="translate(367,93)"/>
<path d="M0 0 C4.64949574 2.13769919 7.43285055 5.21333357 10.4140625 9.3125 C7.4140625 11.3125 7.4140625 11.3125 5.6640625 11.1875 C2.36199856 9.90336402 -0.53700569 8.1192744 -3.5859375 6.3125 C-7.77558261 4.21767744 -11.91404428 5.09239705 -16.2109375 6.5 C-22.36827719 9.80671946 -25.47509075 13.64666814 -27.5859375 20.3125 C-28.36292748 26.31554585 -27.57218076 30.95785691 -24.5859375 36.3125 C-20.56261873 41.09698718 -16.56516081 43.85415795 -10.3359375 44.8125 C-5.90030392 44.22108219 -2.80314171 42.65145855 1.08203125 40.50390625 C4.9880031 38.508393 4.9880031 38.508393 7.4140625 38.3125 C9.1640625 39.75 9.1640625 39.75 10.4140625 41.3125 C9.37973123 42.25808687 8.33612104 43.19352584 7.2890625 44.125 C6.41894531 44.90810547 6.41894531 44.90810547 5.53125 45.70703125 C-1.4881358 51.02984963 -8.05429766 51.17152094 -16.5859375 50.3125 C-22.93088127 48.63118998 -26.91576136 44.58973552 -30.5859375 39.3125 C-31.00101562 38.72726563 -31.41609375 38.14203125 -31.84375 37.5390625 C-35.46967244 31.52966657 -35.51273488 25.13635331 -34.5859375 18.3125 C-32.10523367 10.08159327 -26.87930054 4.74914964 -19.79296875 0.1484375 C-14.04789045 -2.02757446 -5.90438004 -1.56974454 0 0 Z " fill="#CDDEF3" transform="translate(295.5859375,89.6875)"/>
<path d="M0 0 C1.98 0 3.96 0 6 0 C9.72867809 8.01665789 12.74147401 16.25814402 15.75 24.5625 C16.26142887 25.96690247 16.77314546 27.3712002 17.28515625 28.77539062 C18.52675449 32.18239348 19.76446171 35.59079413 21 39 C21.46929932 37.91428711 21.93859863 36.82857422 22.42211914 35.70996094 C22.68610001 35.09924744 22.95008087 34.48853394 23.22206116 33.85931396 C24.40651 31.02842013 25.42038008 28.14462325 26.4375 25.25 C26.86675781 24.03699219 27.29601562 22.82398437 27.73828125 21.57421875 C28.36283203 19.80498047 28.36283203 19.80498047 29 18 C31.16567191 11.91622202 33.37663182 5.9025784 36 0 C37.98 0 39.96 0 42 0 C41.36769767 3.35239536 40.59660718 6.60496724 39.625 9.875 C39.39039063 10.67679688 39.15578125 11.47859375 38.9140625 12.3046875 C38.01220452 14.96401232 36.9182684 17.49669606 35.79394531 20.06787109 C34.34305787 23.59872078 33.22841201 27.24235238 32.0625 30.875 C30.03136426 37.10034858 27.84541897 43.09028369 25 49 C22.36 49 19.72 49 17 49 C16.61328125 47.88882813 16.2265625 46.77765625 15.828125 45.6328125 C12.55629007 36.18896083 12.55629007 36.18896083 8.9375 26.875 C5.3572343 18.14154851 2.54211212 9.08396946 0 0 Z " fill="#C9DAEE" transform="translate(197,90)"/>
<path d="M0 0 C4.83174794 2.21800239 7.88963275 4.8276268 10.73828125 9.31640625 C11.23328125 13.27640625 11.23328125 13.27640625 11.73828125 17.31640625 C-0.47171875 17.31640625 -12.68171875 17.31640625 -25.26171875 17.31640625 C-23.65027895 9.25920726 -20.73520929 5.10522937 -14.26171875 0.31640625 C-10.01083417 -1.80903604 -4.46337282 -1.34903324 0 0 Z " fill="#283C3E" transform="translate(139.26171875,94.68359375)"/>
<path d="M0 0 C1.63001953 0.01353516 1.63001953 0.01353516 3.29296875 0.02734375 C4.12441406 0.03894531 4.95585937 0.05054687 5.8125 0.0625 C5.14453125 2.49609375 5.14453125 2.49609375 3.8125 5.0625 C1.38671875 5.84765625 1.38671875 5.84765625 -1.5 6.125 C-6.17839425 6.78547919 -8.89351195 7.45970057 -12.1875 11.0625 C-15.301573 15.24848227 -15.6541302 18.92262391 -15.69921875 23.98828125 C-15.71716995 24.73587204 -15.73512115 25.48346283 -15.75361633 26.25370789 C-15.80753849 28.62741558 -15.84155554 31.00092432 -15.875 33.375 C-15.90818921 34.99026195 -15.94268035 36.60549771 -15.97851562 38.22070312 C-16.06325399 42.16782476 -16.13015049 46.11488927 -16.1875 50.0625 C-18.1675 50.0625 -20.1475 50.0625 -22.1875 50.0625 C-22.1875 33.8925 -22.1875 17.7225 -22.1875 1.0625 C-20.2075 1.0625 -18.2275 1.0625 -16.1875 1.0625 C-15.8575 2.7125 -15.5275 4.3625 -15.1875 6.0625 C-14.259375 5.258125 -13.33125 4.45375 -12.375 3.625 C-8.40417622 0.18361939 -5.17174363 -0.05561015 0 0 Z " fill="#CCDEF2" transform="translate(187.1875,88.9375)"/>
<path d="M0 0 C2.31 0 4.62 0 7 0 C7 16.17 7 32.34 7 49 C4.69 49 2.38 49 0 49 C0 32.83 0 16.66 0 0 Z " fill="#BECFE2" transform="translate(313,90)"/>
<path d="M0 0 C1.98 0 3.96 0 6 0 C6 16.17 6 32.34 6 49 C4.02 49 2.04 49 0 49 C0 32.83 0 16.66 0 0 Z " fill="#CBDCF0" transform="translate(247,90)"/>
<path d="M0 0 C2.5 0.125 2.5 0.125 3.5 1.125 C3.59946453 2.89359193 3.63080217 4.66611451 3.6328125 6.4375 C3.63410156 7.51257813 3.63539063 8.58765625 3.63671875 9.6953125 C3.63285156 10.82710937 3.62898437 11.95890625 3.625 13.125 C3.62886719 14.25679687 3.63273438 15.38859375 3.63671875 16.5546875 C3.63542969 17.62976563 3.63414062 18.70484375 3.6328125 19.8125 C3.63168457 20.80636719 3.63055664 21.80023438 3.62939453 22.82421875 C3.5 25.125 3.5 25.125 2.5 26.125 C0 26.25 0 26.25 -2.5 26.125 C-4.21567792 24.40932208 -3.63015825 22.15127265 -3.6328125 19.8125 C-3.63410156 18.73742187 -3.63539063 17.66234375 -3.63671875 16.5546875 C-3.63091797 14.85699219 -3.63091797 14.85699219 -3.625 13.125 C-3.62886719 11.99320313 -3.63273438 10.86140625 -3.63671875 9.6953125 C-3.63542969 8.62023437 -3.63414062 7.54515625 -3.6328125 6.4375 C-3.63168457 5.44363281 -3.63055664 4.44976562 -3.62939453 3.42578125 C-3.4479083 0.19875054 -3.24126995 0.1620635 0 0 Z " fill="#6DE7E0" transform="translate(196.5,195.875)"/>
<path d="M0 0 C0.67417969 0.30164063 1.34835938 0.60328125 2.04296875 0.9140625 C2.37296875 2.2340625 2.70296875 3.5540625 3.04296875 4.9140625 C2.19734375 5.5740625 1.35171875 6.2340625 0.48046875 6.9140625 C-3.45899143 10.17818665 -6.6574771 14.0236791 -9.95703125 17.9140625 C-10.95703125 18.9140625 -10.95703125 18.9140625 -14.01953125 18.9765625 C-14.98890625 18.9559375 -15.95828125 18.9353125 -16.95703125 18.9140625 C-17.375 16.875 -17.375 16.875 -16.95703125 13.9140625 C-15.01381528 11.16752737 -12.6709511 8.88530487 -10.26953125 6.5390625 C-9.64369141 5.88550781 -9.01785156 5.23195312 -8.37304688 4.55859375 C-3.68286544 -0.10703176 -3.68286544 -0.10703176 0 0 Z " fill="#6DE7E1" transform="translate(226.95703125,206.0859375)"/>
<path d="M0 0 C4.52720835 0.47822623 6.41660558 1.97117918 9.5 5.25 C10.27085937 6.06339844 11.04171875 6.87679687 11.8359375 7.71484375 C12.55007812 8.46894531 13.26421875 9.22304687 14 10 C15.03792197 10.94164414 16.07869576 11.88017863 17.125 12.8125 C17.74375 13.534375 18.3625 14.25625 19 15 C18.8125 17.3125 18.8125 17.3125 18 19 C16.23168945 19.68798828 16.23168945 19.68798828 14 20 C11.01197948 18.08434904 8.66408359 15.40506849 6.1875 12.875 C5.48173828 12.19695312 4.77597656 11.51890625 4.04882812 10.8203125 C3.38689453 10.15515625 2.72496094 9.49 2.04296875 8.8046875 C1.43477295 8.19608887 0.82657715 7.58749023 0.19995117 6.96044922 C-1 5 -1 5 -0.69018555 2.26220703 C-0.46242432 1.51567871 -0.23466309 0.76915039 0 0 Z " fill="#6EE9E3" transform="translate(164,206)"/>
<path d="M0 0 C1.67542976 0.28604898 3.34385343 0.61781233 5 1 C5.33 2.65 5.66 4.3 6 6 C4.0085944 6.38133299 2.00720923 6.71325582 0 7 C-1 6 -1 6 -1.125 3.5 C-1 1 -1 1 0 0 Z " fill="#C1D2E6" transform="translate(248,74)"/>
<path d="M0 0 C0 1.65 0 3.3 0 5 C-2.375 5.625 -2.375 5.625 -5 6 C-5.66 5.34 -6.32 4.68 -7 4 C-7 2.68 -7 1.36 -7 0 C-4.3333581 -1.33332095 -2.83319697 -0.67102033 0 0 Z " fill="#C3D4E8" transform="translate(320,75)"/>
</svg>
